<?xml version="1.0" standalone="no"?>
<!DOCTYPE svg PUBLIC "-//W3C//DTD SVG 20010904//EN"
 "http://www.w3.org/TR/2001/REC-SVG-20010904/DTD/svg10.dtd">
<svg version="1.0" xmlns="http://www.w3.org/2000/svg"
 width="1367.000000pt" height="2000.000000pt" viewBox="0 0 1367.000000 2000.000000"
 preserveAspectRatio="xMidYMid meet">

<g transform="translate(0.000000,2000.000000) scale(0.100000,-0.100000)"
fill="#000000" stroke="none">
<path d="M0 10000 l0 -10000 6835 0 6835 0 0 10000 0 10000 -6835 0 -6835 0 0
-10000z m9733 6955 c26 -19 18 -49 -14 -53 -29 -3 -64 29 -56 53 8 19 46 19
70 0z m-2462 -939 c310 -57 592 -185 828 -377 337 -272 577 -644 696 -1076 85
-306 98 -484 88 -1224 l-6 -536 84 -32 c389 -149 418 -167 479 -286 l35 -68 0
-1871 0 -1871 -31 -65 c-38 -81 -76 -125 -153 -177 -62 -44 -86 -51 -331 -101
l-135 -28 3 -229 c3 -185 7 -232 18 -238 19 -11 18 -33 -2 -41 -33 -13 -73 31
-44 49 12 7 14 455 3 454 -5 0 -154 -30 -333 -67 l-325 -67 0 -437 c0 -240 -4
-430 -8 -422 -5 8 -11 202 -14 432 -3 229 -6 418 -7 419 -2 3 -528 -106 -532
-110 -3 -3 -5 -212 -4 -466 0 -312 -3 -460 -10 -456 -6 4 -10 163 -10 461 0
356 -3 454 -12 454 -46 0 -235 -45 -246 -59 -11 -13 -12 -71 -8 -290 3 -151
10 -279 15 -284 12 -12 3 -37 -14 -37 -22 0 -40 29 -27 42 9 9 12 93 12 291
l0 280 -46 -7 c-25 -3 -75 -13 -112 -21 -37 -8 -173 -35 -302 -61 -129 -25
-242 -47 -251 -50 -14 -4 -19 -27 -26 -127 l-10 -122 -3 105 c-2 58 -3 111 -3
118 1 18 -4 17 -296 -38 -309 -59 -301 -57 -301 -76 0 -8 -4 -14 -10 -14 -5 0
-10 5 -10 10 0 16 -55 10 -245 -29 l-180 -36 -5 -57 c-7 -78 -17 -82 -26 -9
-3 34 -7 61 -8 61 0 0 -81 -16 -180 -35 -195 -38 -276 -43 -352 -20 -64 19
-418 225 -465 271 -89 86 -119 188 -119 396 0 127 -2 148 -15 148 -16 0 -255
-48 -353 -71 l-53 -13 -170 -253 c-94 -139 -175 -255 -181 -259 -6 -4 -5 2 2
16 12 22 261 405 293 450 17 24 17 25 -2 28 -11 2 -93 -13 -181 -33 -181 -42
-229 -42 -63 -1 247 61 264 67 273 92 11 27 36 31 60 9 15 -14 36 -11 201 23
l184 38 3 282 c2 227 0 282 -11 282 -17 0 -697 -119 -719 -126 -10 -3 -55 -45
-100 -94 -83 -88 -83 -89 -150 -100 -37 -7 -73 -10 -80 -7 -7 2 20 10 61 17
52 9 81 19 95 34 120 127 159 166 164 166 6 0 677 118 715 126 26 5 27 8 27
70 0 45 -4 64 -12 64 -16 0 -1036 -174 -1431 -244 -65 -11 -84 -19 -112 -46
l-34 -33 17 35 17 35 295 52 c162 29 500 88 750 132 250 43 467 82 483 85 l27
6 0 115 0 116 -47 -7 c-27 -3 -178 -27 -337 -52 -282 -46 -290 -48 -325 -79
-34 -30 -45 -33 -219 -59 -101 -16 -185 -26 -188 -23 -2 2 79 18 182 34 174
29 188 33 217 61 31 29 41 32 347 81 173 29 327 54 343 57 l27 6 0 333 c0 189
-4 336 -9 339 -5 4 -73 -3 -151 -15 -77 -11 -146 -19 -152 -17 -6 2 58 14 143
27 85 12 157 25 161 27 6 4 0 373 -6 381 -1 1 -157 -18 -347 -44 -449 -60
-445 -60 -584 1 -101 44 -115 48 -165 42 -30 -3 -134 -15 -230 -26 -96 -11
-186 -19 -200 -19 -14 1 38 10 115 20 77 10 191 25 253 33 l114 15 131 -54
132 -55 390 53 390 52 3 123 3 122 -38 1 -38 2 35 6 35 6 3 247 2 247 -47 -5
c-27 -2 -171 -18 -322 -35 -150 -16 -285 -29 -300 -27 -14 2 120 20 299 41
179 21 335 41 348 44 21 5 22 9 22 114 l0 109 -57 -4 -58 -5 59 11 58 11 -7
181 c-3 99 -7 204 -8 231 l-2 50 -95 -3 c-52 -1 -186 -10 -298 -18 -112 -9
-213 -13 -225 -10 -12 3 -38 20 -57 37 l-35 30 54 -27 55 -26 295 21 c163 12
302 21 309 21 8 0 12 6 9 13 -2 6 1 19 7 27 25 31 35 67 23 79 -8 8 -7 11 6
11 9 0 37 21 62 46 60 60 86 69 245 89 116 15 138 20 160 41 l25 24 1 798 c1
540 5 828 13 892 88 716 461 1326 1042 1706 232 152 543 262 869 310 119 17
382 12 501 -10z m-3331 -1707 c0 -384 -3 -489 -12 -490 -10 0 -10 -2 0 -6 6
-2 12 -16 12 -29 0 -14 -4 -22 -10 -19 -6 4 -10 -6 -10 -22 0 -22 2 -25 10
-13 8 12 10 11 10 -7 0 -14 -6 -23 -15 -23 -13 0 -15 68 -15 548 0 302 3 552
6 555 4 4 11 4 15 1 5 -3 9 -225 9 -495z m-235 -331 c4 -17 3 -28 -3 -28 -10
0 -22 32 -22 60 0 22 18 -1 25 -32z m327 -248 c5 0 6 6 2 13 -6 9 -4 9 6 0 12
-11 11 -15 -6 -28 -18 -15 -18 -15 0 -8 13 4 17 3 12 -5 -18 -30 -66 -5 -66
34 0 29 22 37 34 13 5 -11 13 -19 18 -19z m5333 -204 c0 -52 -63 -62 -73 -12
-7 33 6 47 40 44 29 -3 33 -7 33 -32z m3151 -64 c17 -11 34 -48 34 -76 0 -52
-60 -75 -95 -36 -46 51 7 148 61 112z m-10848 -18 c48 -33 44 -98 -6 -111 -56
-14 -110 79 -65 113 24 18 44 17 71 -2z m2732 -10 c0 -8 -4 -12 -10 -9 -5 3
-10 10 -10 16 0 5 5 9 10 9 6 0 10 -7 10 -16z m6140 -674 c24 -24 25 -38 3
-62 -20 -22 -41 -23 -65 -1 -22 20 -23 41 -1 65 21 23 38 23 63 -2z m-8285
-200 c23 -26 9 -43 -30 -38 -35 4 -57 34 -35 48 24 15 45 12 65 -10z m-549
-498 c31 -21 18 -72 -19 -72 -29 0 -47 18 -47 46 0 29 39 45 66 26z m1717
-411 c75 -55 153 -111 174 -125 l39 -26 121 12 121 12 44 -29 c23 -16 59 -32
78 -36 33 -6 33 -7 6 -8 -16 0 -52 13 -81 29 l-53 30 -94 -10 c-51 -6 -106
-13 -121 -16 -32 -7 -73 19 -250 155 -138 106 -143 111 -131 111 7 0 73 -45
147 -99z m755 -178 c-10 -2 -28 -2 -40 0 -13 2 -5 4 17 4 22 1 32 -1 23 -4z
m-80 -10 c-10 -2 -28 -2 -40 0 -13 2 -5 4 17 4 22 1 32 -1 23 -4z m8203 -312
c7 -50 -8 -85 -38 -89 -25 -4 -38 16 -48 70 -8 44 0 75 23 81 31 7 57 -18 63
-62z m-8726 19 c-27 -5 -66 -8 -85 -8 -32 1 -31 2 10 8 25 4 63 7 85 7 38 0
37 0 -10 -7z m-570 -34 c19 -14 19 -14 0 -36 -21 -24 -53 -23 -68 2 -8 12 -7
21 2 32 17 20 41 20 66 2z m10079 -212 c24 -23 20 -53 -9 -66 -21 -9 -28 -8
-45 7 -23 20 -26 45 -8 63 17 17 44 15 62 -4z m-10907 -100 c14 -38 -41 -71
-66 -40 -7 8 -10 24 -6 36 8 25 62 28 72 4z m8493 -69 c17 -20 5 -62 -20 -70
-44 -14 -80 41 -48 73 17 17 53 15 68 -3z m-6452 -22 c-10 -2 -26 -2 -35 0
-10 3 -2 5 17 5 19 0 27 -2 18 -5z m-85 -10 c-7 -2 -19 -2 -25 0 -7 3 -2 5 12
5 14 0 19 -2 13 -5z m-86 -9 c-3 -3 -12 -4 -19 -1 -8 3 -5 6 6 6 11 1 17 -2
13 -5z m-74 -11 c-7 -2 -21 -2 -30 0 -10 3 -4 5 12 5 17 0 24 -2 18 -5z m-86
-9 c-3 -3 -12 -4 -19 -1 -8 3 -5 6 6 6 11 1 17 -2 13 -5z m-74 -11 c-7 -2 -19
-2 -25 0 -7 3 -2 5 12 5 14 0 19 -2 13 -5z m-80 -10 c-7 -2 -21 -2 -30 0 -10
3 -4 5 12 5 17 0 24 -2 18 -5z m-80 -10 c-7 -2 -21 -2 -30 0 -10 3 -4 5 12 5
17 0 24 -2 18 -5z m-80 -10 c-7 -2 -19 -2 -25 0 -7 3 -2 5 12 5 14 0 19 -2 13
-5z m-86 -9 c-3 -3 -12 -4 -19 -1 -8 3 -5 6 6 6 11 1 17 -2 13 -5z m6187 -240
c19 -7 21 -45 4 -62 -24 -24 -78 -8 -78 24 0 17 28 44 45 44 7 0 20 -3 29 -6z
m1390 -140 c23 -22 20 -43 -8 -55 -45 -21 -87 26 -54 59 17 17 44 15 62 -4z
m-8916 -40 c25 -17 29 -52 7 -60 -43 -17 -92 29 -65 61 16 19 30 19 58 -1z
m8396 -151 c115 -26 204 -49 199 -50 -6 -2 -60 7 -119 21 -162 37 -331 66
-388 66 -28 0 -58 5 -66 11 -33 23 173 -4 374 -48z m-9865 3 c18 -22 5 -64
-23 -77 -30 -14 -64 3 -72 36 -16 65 52 94 95 41z m3221 -56 c-58 -10 -116
-18 -130 -18 -14 0 20 9 75 18 55 10 114 18 130 18 17 0 -17 -9 -75 -18z
m6973 -19 c45 -11 145 -34 222 -51 165 -37 178 -41 172 -46 -2 -2 -93 17 -203
41 -268 62 -312 73 -291 74 10 1 55 -8 100 -18z m1573 -16 c34 -52 -25 -105
-75 -67 -33 24 -38 48 -15 73 25 27 70 25 90 -6z m-8771 -1 c-38 -7 -79 -12
-90 -12 -30 1 95 26 130 26 17 0 -1 -6 -40 -14z m-166 -16 c-2 -2 -27 -23 -54
-48 l-50 -45 45 48 c24 26 48 47 54 47 5 0 7 -1 5 -2z m-119 -121 c0 -2 -10
-12 -22 -23 l-23 -19 19 23 c18 21 26 27 26 19z m-396 -114 c15 -37 -39 -46
-70 -12 -18 20 -18 21 0 34 21 16 61 3 70 -22z m-733 -113 c24 -14 25 -40 0
-40 -22 0 -45 25 -36 40 8 13 12 13 36 0z m1163 -26 c20 -8 21 -33 1 -40 -23
-9 -48 15 -34 32 13 16 12 16 33 8z m6475 -73 c13 -24 5 -31 -34 -31 -36 0
-71 22 -61 38 12 20 84 15 95 -7z m861 -247 c11 -12 10 -18 -3 -31 -35 -36
-128 -6 -97 31 7 9 28 16 50 16 22 0 43 -7 50 -16z m-7567 -121 c-7 -2 -21 -2
-30 0 -10 3 -4 5 12 5 17 0 24 -2 18 -5z m-118 -19 c-38 -7 -81 -12 -95 -12
-33 1 97 26 135 26 17 0 -1 -6 -40 -14z m-132 -21 c-7 -2 -21 -2 -30 0 -10 3
-4 5 12 5 17 0 24 -2 18 -5z m-65 -10 c-10 -2 -28 -2 -40 0 -13 2 -5 4 17 4
22 1 32 -1 23 -4z m8316 -219 c9 -8 14 -20 11 -25 -8 -12 -72 -11 -80 1 -21
35 39 55 69 24z m-8441 -21 c-7 -2 -21 -2 -30 0 -10 3 -4 5 12 5 17 0 24 -2
18 -5z m-60 -10 c-7 -2 -21 -2 -30 0 -10 3 -4 5 12 5 17 0 24 -2 18 -5z m-63
-7 c0 -11 -19 -15 -25 -6 -3 5 1 10 9 10 9 0 16 -2 16 -4z m8961 -102 c96 -31
230 -74 299 -95 69 -22 194 -63 278 -90 84 -28 164 -51 180 -52 15 -1 28 -9
30 -17 2 -11 -43 0 -180 43 -337 108 -793 258 -797 263 -11 11 29 0 190 -52z
m-1516 -69 c118 -45 1028 -396 1250 -483 l70 -27 73 -110 c60 -90 79 -111 103
-116 58 -13 65 -49 9 -49 -42 0 -60 10 -61 34 0 11 -31 68 -67 126 l-67 104
-85 33 c-47 18 -258 98 -470 179 -212 80 -475 182 -585 226 -110 44 -229 91
-265 105 -35 13 -69 29 -75 35 -7 8 -4 9 10 3 11 -4 83 -31 160 -60z m-6832
-32 c-7 -2 -19 -2 -25 0 -7 3 -2 5 12 5 14 0 19 -2 13 -5z m9955 -50 c2 -8 -6
-13 -22 -13 -17 0 -26 5 -26 16 0 19 41 16 48 -3z m-11481 -195 c22 -18 26
-49 7 -69 -22 -25 -59 -24 -84 1 -52 52 18 115 77 68z m7958 -203 c45 -21 95
-37 115 -37 l35 0 -31 -9 c-27 -8 -55 3 -235 87 -112 52 -208 100 -214 105 -9
9 115 -46 330 -146z m2550 102 c26 -20 10 -37 -33 -37 -26 0 -41 -6 -50 -20
-8 -13 -22 -20 -40 -19 -21 1 -22 2 -7 6 31 8 45 23 45 48 0 35 49 47 85 22z
m-162 -84 c-7 -2 -19 -2 -25 0 -7 3 -2 5 12 5 14 0 19 -2 13 -5z m-46 -9 c-3
-3 -12 -4 -19 -1 -8 3 -5 6 6 6 11 1 17 -2 13 -5z m-50 -10 c-3 -3 -12 -4 -19
-1 -8 3 -5 6 6 6 11 1 17 -2 13 -5z m-1869 -88 c296 -132 543 -248 538 -253
-5 -5 -87 30 -444 194 -257 117 -277 125 -320 119 l-47 -5 40 13 c22 8 41 14
43 15 1 1 87 -37 190 -83z m1819 78 c-3 -3 -12 -4 -19 -1 -8 3 -5 6 6 6 11 1
17 -2 13 -5z m-90 -20 c-3 -3 -12 -4 -19 -1 -8 3 -5 6 6 6 11 1 17 -2 13 -5z
m-50 -10 c-3 -3 -12 -4 -19 -1 -8 3 -5 6 6 6 11 1 17 -2 13 -5z m-232 -52 c-7
-8 -35 7 -35 18 0 6 7 6 20 -2 10 -7 17 -14 15 -16z m92 22 c-3 -3 -12 -4 -19
-1 -8 3 -5 6 6 6 11 1 17 -2 13 -5z m-50 -10 c-3 -3 -12 -4 -19 -1 -8 3 -5 6
6 6 11 1 17 -2 13 -5z m-2568 -406 c137 -84 136 -84 120 -93 -8 -5 -10 -4 -5
3 6 11 -6 16 -26 13 -5 0 -8 4 -8 9 0 6 -4 9 -9 8 -13 -4 -221 114 -221 125 0
19 42 1 149 -65z m2403 -100 l21 -21 -23 -19 c-26 -21 -36 -22 -79 -7 -20 7
-31 18 -31 29 0 41 76 54 112 18z m-3052 -38 c0 -5 -4 -10 -10 -10 -5 0 -10 5
-10 10 0 6 5 10 10 10 6 0 10 -4 10 -10z m-2269 -160 c25 -14 25 -56 -1 -70
-13 -7 -21 -22 -21 -43 l-2 -32 -4 30 c-3 17 -10 37 -17 45 -25 30 -26 40 -6
60 23 23 25 23 51 10z m436 -42 c-3 -7 -5 -2 -5 12 0 14 2 19 5 13 2 -7 2 -19
0 -25z m0 -190 c-2 -35 -3 -9 -3 57 0 66 1 94 3 63 2 -32 2 -86 0 -120z m2910
87 c7 -19 5 -20 -28 -28 -29 -7 -66 14 -55 31 11 18 76 15 83 -3z m-3952 -21
c29 -19 32 -50 8 -76 -21 -23 -38 -23 -63 2 -25 25 -25 40 -2 68 21 26 26 27
57 6z m-2289 -721 c-10 -10 -19 5 -10 18 6 11 8 11 12 0 2 -7 1 -15 -2 -18z
m-1009 -405 c28 -26 29 -57 3 -91 -26 -33 -64 -42 -95 -21 -31 20 -32 52 -3
90 40 52 59 56 95 22z m4903 -1742 c0 -32 -18 -43 -37 -23 -20 20 -10 47 17
47 15 0 20 -7 20 -24z"/>
<path d="M6820 15791 c-47 -10 -121 -26 -165 -35 -135 -28 -185 -46 -305 -106
-144 -72 -173 -89 -289 -169 -306 -211 -583 -545 -781 -940 -153 -306 -235
-582 -248 -836 -10 -184 -8 -1331 2 -1442 8 -84 7 -91 -10 -95 -32 -7 132 -28
216 -28 84 0 248 21 217 28 -14 3 -17 9 -12 25 21 68 25 158 30 732 8 804 24
972 115 1246 104 315 297 607 529 800 185 155 307 227 521 312 158 62 254 80
425 80 119 0 155 -4 238 -26 346 -92 637 -348 828 -728 113 -226 165 -445 174
-743 4 -94 8 -202 10 -241 5 -89 13 -341 20 -610 5 -214 20 -376 36 -407 8
-15 5 -18 -13 -19 -13 -1 2 -8 32 -16 64 -17 249 -19 300 -4 31 9 29 10 -23 5
l-57 -5 29 32 c51 55 56 98 68 569 12 445 10 840 -5 945 -43 314 -132 568
-289 832 -30 51 -61 97 -69 104 -8 6 -14 18 -14 26 0 19 -247 266 -327 327
-81 61 -258 168 -353 213 -111 53 -311 116 -470 148 -48 10 -77 19 -88 28 -24
19 -180 18 -272 -2z"/>
<path d="M6855 15214 c-305 -57 -567 -217 -775 -474 -213 -263 -335 -530 -396
-865 -13 -78 -16 -183 -14 -765 0 -371 3 -677 6 -679 8 -8 822 105 2317 321
l147 21 0 121 c0 67 5 353 11 636 12 504 12 517 -9 635 -77 446 -320 793 -676
965 -56 27 -139 59 -186 71 -111 28 -311 35 -425 13z"/>
<path d="M8460 12403 c-174 -3 -453 -21 -503 -33 -23 -5 -73 -12 -112 -15 -38
-4 -72 -9 -75 -10 -3 -2 -30 -6 -60 -9 -97 -10 -372 -47 -455 -60 -44 -8 -106
-13 -138 -11 -32 1 -53 -1 -47 -5 7 -4 -3 -9 -24 -12 -21 -2 -36 0 -36 7 0 5
-4 4 -9 -4 -5 -8 -19 -12 -35 -9 -14 3 -23 2 -21 -2 6 -9 -210 -40 -315 -45
-47 -2 -326 -38 -620 -79 -294 -41 -620 -87 -725 -101 -312 -42 -327 -47 -396
-118 -56 -57 -86 -122 -100 -209 -12 -83 -25 -122 -38 -114 -5 3 -11 -4 -15
-17 -8 -32 -6 -3583 3 -3637 l7 -45 7 54 c5 29 10 51 13 48 3 -3 10 -35 15
-72 29 -210 161 -289 402 -241 40 8 124 24 187 36 63 12 203 39 310 60 107 21
247 48 310 60 63 12 217 41 341 66 124 24 259 48 300 54 108 15 625 126 939
201 99 23 107 25 180 40 30 6 145 33 255 61 110 27 216 54 235 58 109 26 434
112 476 126 27 10 56 18 64 19 8 1 35 10 60 21 25 10 51 17 59 16 8 -2 10 1 5
9 -5 9 -1 11 14 7 14 -4 28 2 42 17 12 13 39 26 62 29 22 4 38 9 36 12 -3 2
-261 -47 -574 -111 -498 -101 -632 -124 -574 -101 13 5 660 141 987 208 63 13
100 25 96 31 -3 6 -1 7 5 3 14 -8 133 14 127 23 -2 4 13 13 33 20 58 21 97 55
110 98 7 24 11 149 12 338 1 165 2 410 3 545 1 211 0 245 -13 242 -13 -2 -13
-1 0 10 21 18 21 128 0 128 -12 0 -12 2 -2 9 11 6 13 42 12 152 -3 264 -9 382
-21 390 -8 5 -8 8 2 11 18 6 13 140 -7 151 -12 7 -12 10 1 23 17 18 19 30 5
39 -6 4 -5 11 3 19 18 19 10 84 -12 89 -14 4 -14 5 2 6 12 1 17 10 17 31 0 17
-5 30 -12 30 -6 0 -4 7 5 18 10 10 15 21 12 24 -3 3 -6 60 -6 127 -1 105 -3
121 -18 121 -10 0 -12 3 -5 8 19 13 25 42 8 42 -13 0 -13 2 -1 14 9 9 13 33
11 72 -2 33 -5 120 -7 193 -4 120 -7 136 -23 142 -18 6 -18 7 -1 14 9 4 17 16
17 27 0 13 -4 17 -12 12 -7 -4 -6 1 3 12 16 19 20 79 6 101 -4 6 -4 19 -1 28
4 10 1 21 -7 26 -12 7 -12 9 0 9 11 0 12 18 7 98 -7 105 -27 180 -59 226 -18
25 -25 28 -58 23 -48 -6 -50 -1 -6 13 27 8 22 9 -28 4 -33 -3 -100 -12 -150
-19 -359 -57 -674 -105 -690 -105 -92 0 194 52 718 132 48 7 72 15 65 20 -8 5
6 6 32 3 25 -2 36 -2 25 2 -11 3 -29 12 -40 19 -11 8 -30 14 -43 14 -13 0 -31
4 -40 9 -17 9 -165 22 -298 26 -39 1 -75 4 -80 6 -5 2 -65 3 -134 2z m607
-129 c-3 -3 -12 -4 -19 -1 -8 3 -5 6 6 6 11 1 17 -2 13 -5z m-1049 -99 c-7 -8
-11 -8 -1208 -185 -189 -28 -353 -49 -365 -48 -11 2 99 20 245 41 146 21 495
74 775 117 502 77 564 85 553 75z m-1858 -149 c0 -4 -14 -6 -600 -86 -245 -33
-464 -67 -487 -76 -54 -20 -120 -93 -129 -143 -9 -55 -15 -71 -25 -71 -15 0
-10 87 6 128 32 75 102 121 185 122 34 0 834 104 950 123 34 6 100 8 100 3z
m145 -107 c-66 -10 -133 -17 -150 -17 -39 1 190 35 235 35 19 0 -19 -8 -85
-18z m-202 -26 c-7 -2 -21 -2 -30 0 -10 3 -4 5 12 5 17 0 24 -2 18 -5z m-65
-10 c-10 -2 -26 -2 -35 0 -10 3 -2 5 17 5 19 0 27 -2 18 -5z m-58 -7 c0 -2
-13 -6 -29 -8 -17 -2 -28 -1 -25 4 5 8 54 12 54 4z m-173 -22 c-3 -3 -12 -4
-19 -1 -8 3 -5 6 6 6 11 1 17 -2 13 -5z m-1050 -446 c-3 -7 -5 -2 -5 12 0 14
2 19 5 13 2 -7 2 -19 0 -25z m0 -135 c-2 -21 -4 -6 -4 32 0 39 2 55 4 38 2
-18 2 -50 0 -70z m2665 -37 c199 -53 371 -247 413 -465 7 -36 9 -196 3 -206
-3 -6 -9 -28 -13 -50 -9 -53 -65 -188 -82 -198 -7 -4 -13 -17 -13 -27 0 -11
-4 -20 -10 -20 -5 0 -27 -24 -49 -54 -22 -30 -52 -67 -67 -83 -15 -15 -37 -45
-51 -66 l-24 -38 11 -182 c6 -100 15 -245 20 -322 5 -77 10 -181 10 -231 l0
-92 -38 -20 c-21 -11 -65 -26 -98 -33 -32 -7 -61 -13 -64 -14 -3 0 -27 -5 -55
-9 -70 -11 -377 -72 -458 -91 -49 -11 -79 -13 -115 -6 -26 5 -39 9 -29 10 24
1 22 22 -3 28 -18 5 -19 7 -5 17 14 10 14 14 2 31 -11 15 -12 23 -3 38 9 15 7
21 -7 32 -12 9 -14 14 -6 17 8 3 13 30 15 76 2 62 0 72 -14 73 -12 0 -11 3 6
9 18 8 22 17 22 50 0 25 -5 40 -12 40 -9 0 -9 3 1 9 17 11 19 18 24 143 5 95
4 98 -17 99 -21 0 -21 0 2 9 19 8 26 20 24 41 -1 3 -2 43 -3 87 l-3 82 -30 1
-31 1 33 11 c37 11 37 28 1 38 -13 4 -18 7 -11 8 18 1 14 43 -7 69 -11 12 -30
22 -43 23 l-23 0 23 10 c29 11 20 29 -16 30 -27 0 -27 0 -4 10 34 13 17 29
-31 30 l-42 1 35 10 c19 5 36 11 38 13 2 2 -6 21 -16 42 -11 21 -23 56 -27 76
-6 33 -11 37 -39 38 -21 1 -24 3 -11 6 34 8 42 23 21 39 -11 8 -14 14 -8 14 8
0 12 20 12 60 0 59 -1 60 -27 61 -21 1 -23 2 -8 6 40 10 62 43 28 43 -14 0
-13 3 5 16 12 8 20 19 17 23 -6 11 32 137 55 181 24 45 25 51 8 61 -9 6 -7 9
9 9 12 0 27 9 33 20 8 15 8 20 -2 20 -7 0 -1 10 13 23 14 12 41 42 60 67 90
120 244 222 384 256 69 17 223 17 287 0z m-2665 -53 c-3 -10 -5 -4 -5 12 0 17
2 24 5 18 2 -7 2 -21 0 -30z m14 -167 c5 -6 9 -21 9 -35 0 -21 -2 -23 -11 -11
-8 12 -9 9 -5 -12 3 -15 2 -30 -4 -33 -6 -4 -10 20 -9 67 1 40 3 64 6 53 3
-11 9 -24 14 -29z m-14 -128 c-3 -8 -6 -5 -6 6 -1 11 2 17 5 13 3 -3 4 -12 1
-19z m15 -43 c0 -5 -5 -11 -11 -13 -6 -2 -11 4 -11 13 0 9 5 15 11 13 6 -2 11
-8 11 -13z m-2 -89 c0 -3 -4 -8 -10 -11 -5 -3 -10 -1 -10 4 0 6 5 11 10 11 6
0 10 -2 10 -4z m10 -31 c0 -8 -7 -15 -15 -15 -13 0 -14 3 -3 15 16 18 18 18
18 0z m-23 -182 c-2 -21 -4 -6 -4 32 0 39 2 55 4 38 2 -18 2 -50 0 -70z m7
-142 c1 -17 -1 -31 -6 -31 -4 0 -7 16 -6 35 1 42 9 39 12 -4z m1783 -257 c-3
-3 -12 -4 -19 -1 -8 3 -5 6 6 6 11 1 17 -2 13 -5z m1298 -1834 c-16 -4 -39 -8
-50 -8 -16 0 -15 2 5 8 14 4 36 8 50 8 22 0 22 -1 -5 -8z m-82 -17 c-7 -2 -19
-2 -25 0 -7 3 -2 5 12 5 14 0 19 -2 13 -5z m-56 -9 c-3 -3 -12 -4 -19 -1 -8 3
-5 6 6 6 11 1 17 -2 13 -5z m-100 -20 c-3 -3 -12 -4 -19 -1 -8 3 -5 6 6 6 11
1 17 -2 13 -5z m-50 -10 c-3 -3 -12 -4 -19 -1 -8 3 -5 6 6 6 11 1 17 -2 13 -5z
m-50 -10 c-3 -3 -12 -4 -19 -1 -8 3 -5 6 6 6 11 1 17 -2 13 -5z m-160 -30 c-3
-3 -12 -4 -19 -1 -8 3 -5 6 6 6 11 1 17 -2 13 -5z m-150 -30 c-3 -3 -12 -4
-19 -1 -8 3 -5 6 6 6 11 1 17 -2 13 -5z m-50 -10 c-3 -3 -12 -4 -19 -1 -8 3
-5 6 6 6 11 1 17 -2 13 -5z m-44 -11 c-7 -2 -19 -2 -25 0 -7 3 -2 5 12 5 14 0
19 -2 13 -5z"/>
<path d="M7208 11130 c-125 -21 -228 -79 -322 -181 -238 -257 -262 -658 -51
-873 66 -66 63 -33 35 -423 -35 -498 -34 -462 -15 -469 9 -4 69 5 133 20 347
77 397 89 400 97 2 5 10 9 18 9 32 0 34 53 15 395 -14 262 -27 379 -46 416
-14 26 -13 28 33 65 170 136 264 290 285 466 8 68 -19 194 -57 262 -74 136
-133 182 -272 211 -76 16 -87 16 -156 5z"/>
<path d="M9168 12303 c7 -3 16 -2 19 1 4 3 -2 6 -13 5 -11 0 -14 -3 -6 -6z"/>
<path d="M4850 12226 c0 -3 9 -10 20 -16 11 -6 20 -8 20 -6 0 3 -9 10 -20 16
-11 6 -20 8 -20 6z"/>
<path d="M4536 10303 c-4 -9 -1 -20 6 -25 9 -5 4 -7 -12 -6 -21 3 -25 -1 -24
-24 1 -15 -2 -25 -7 -23 -4 3 -14 -4 -22 -15 -7 -11 -18 -17 -23 -12 -4 4 -2
-1 5 -10 12 -16 11 -18 -3 -18 -11 0 -14 -4 -10 -12 13 -21 4 -382 -9 -390 -7
-4 -7 -8 -2 -8 11 0 11 -140 -1 -495 -9 -253 -9 -265 1 -322 4 -24 4 -43 -1
-43 -5 0 -8 -22 -7 -50 0 -30 -3 -50 -10 -50 -6 0 -3 -6 7 -13 16 -12 17 -14
1 -27 -11 -9 -13 -15 -4 -20 6 -4 12 -30 13 -58 0 -28 -2 -48 -6 -45 -10 6
-10 -13 1 -59 5 -21 6 -38 2 -38 -4 0 -7 -17 -7 -39 0 -28 4 -37 13 -34 11 4
11 -1 3 -22 -7 -20 -7 -31 1 -41 9 -11 8 -18 -1 -29 -6 -8 -9 -23 -5 -34 3
-10 1 -22 -5 -26 -13 -8 -13 -45 0 -45 6 0 10 -7 10 -15 0 -8 -4 -15 -8 -15
-17 0 -10 -45 10 -62 12 -10 18 -18 14 -18 -4 0 1 -13 11 -30 9 -16 22 -30 28
-30 6 0 28 -16 49 -35 44 -40 81 -52 86 -27 6 34 5 1873 -2 2052 -4 102 -11
196 -17 210 -5 14 -10 20 -10 15 -1 -6 -12 -12 -27 -13 -14 -1 -23 2 -19 8 3
6 2 10 -3 10 -6 0 -13 -8 -16 -17z"/>
<path d="M4360 8050 c0 -57 57 -162 95 -174 17 -5 46 -19 65 -31 39 -24 170
-95 170 -91 0 1 -9 41 -19 89 -22 102 -44 143 -88 167 -18 9 -30 20 -26 24 3
3 -3 6 -13 6 -11 0 -57 11 -102 24 l-82 24 0 -38z"/>
<path d="M4665 7735 c11 -9 29 -21 40 -26 l20 -10 -20 16 c-11 9 -29 21 -40
26 l-20 10 20 -16z"/>
<path d="M3922 13860 c0 -19 2 -27 5 -17 2 9 2 25 0 35 -3 9 -5 1 -5 -18z"/>
</g>
</svg>
