<?xml version="1.0" encoding="UTF-8"?>
<svg version="1.1" xmlns="http://www.w3.org/2000/svg" width="96" height="96">
<path d="M0 0 C31.68 0 63.36 0 96 0 C96 31.68 96 63.36 96 96 C64.32 96 32.64 96 0 96 C0 64.32 0 32.64 0 0 Z " fill="#0A0A09" transform="translate(0,0)"/>
<path d="M0 0 C2.78348113 1.432333 4.77417005 2.83858078 6.5 5.46484375 C7.31901541 9.5599208 7.80878025 13.13269946 7.0625 17.27734375 C5.73193359 19.26831055 5.73193359 19.26831055 4.0859375 21.2890625 C0.15463683 26.92501428 0.17133942 32.1372443 0.1875 38.83984375 C0.166875 39.94392578 0.14625 41.04800781 0.125 42.18554688 C0.07828086 44.88357695 0.05802354 47.57899548 0.0625 50.27734375 C-1.2575 50.93734375 -2.5775 51.59734375 -3.9375 52.27734375 C-3.9375 52.93734375 -3.9375 53.59734375 -3.9375 54.27734375 C-4.9275 54.27734375 -5.9175 54.27734375 -6.9375 54.27734375 C-7.2675 53.61734375 -7.5975 52.95734375 -7.9375 52.27734375 C-21.4675 52.27734375 -34.9975 52.27734375 -48.9375 52.27734375 C-48.9375 42.37734375 -48.9375 32.47734375 -48.9375 22.27734375 C-47.6175 22.27734375 -46.2975 22.27734375 -44.9375 22.27734375 C-45.02 21.12234375 -45.1025 19.96734375 -45.1875 18.77734375 C-45.17882506 13.88467583 -43.68291757 10.28850579 -40.9375 6.27734375 C-36.65057101 2.10033601 -32.94404681 0.4365935 -27 -0.03515625 C-23.0420715 0.03192728 -20.45917658 1.51650546 -16.9375 3.27734375 C-14.75451858 2.68589041 -14.75451858 2.68589041 -12.9375 1.27734375 C-8.80420173 -1.28815173 -4.62561464 -1.72527966 0 0 Z " fill="#BDB776" transform="translate(68.9375,21.72265625)"/>
<path d="M0 0 C3.03886809 1.55176243 4.50822995 2.67412273 5.70703125 5.90625 C6.2320072 7.9306177 6.63025471 9.94228707 7 12 C7.32459752 13.33548693 7.65549779 14.66950869 8 16 C8.66 16 9.32 16 10 16 C12.6875 17.9375 12.6875 17.9375 15 21 C15.07229543 23.3900019 14.76757165 25.4750962 14.296875 27.81640625 C13.97092841 30.21382919 14.35962004 31.69005799 15 34 C15 36.33333333 15 38.66666667 15 41 C14.34 41 13.68 41 13 41 C13.495 42.98 13.495 42.98 14 45 C1.79 45 -10.42 45 -23 45 C-23 44.67 -23 44.34 -23 44 C-17.06 44 -11.12 44 -5 44 C-5.185625 42.845 -5.37125 41.69 -5.5625 40.5 C-6.38998198 33.33998232 -5.57075832 26.15643124 -5 19 C-4.01 19 -3.02 19 -2 19 C-2 18.34 -2 17.68 -2 17 C-2.83144531 17.01160156 -3.66289063 17.02320312 -4.51953125 17.03515625 C-5.60621094 17.04417969 -6.69289063 17.05320312 -7.8125 17.0625 C-8.89144531 17.07410156 -9.97039063 17.08570312 -11.08203125 17.09765625 C-14 17 -14 17 -17 16 C-16.83594462 9.28864336 -15.85033511 5.73203426 -11 1 C-7.52635643 -0.73682178 -3.79788218 -0.4533804 0 0 Z " fill="#988F54" transform="translate(46,28)"/>
<path d="M0 0 C2.78348113 1.432333 4.77417005 2.83858078 6.5 5.46484375 C7.31901541 9.5599208 7.80878025 13.13269946 7.0625 17.27734375 C5.73193359 19.26831055 5.73193359 19.26831055 4.0859375 21.2890625 C0.15463683 26.92501428 0.17133942 32.1372443 0.1875 38.83984375 C0.166875 39.94392578 0.14625 41.04800781 0.125 42.18554688 C0.07828086 44.88357695 0.05802354 47.57899548 0.0625 50.27734375 C-1.2575 50.93734375 -2.5775 51.59734375 -3.9375 52.27734375 C-3.9375 52.93734375 -3.9375 53.59734375 -3.9375 54.27734375 C-4.9275 54.27734375 -5.9175 54.27734375 -6.9375 54.27734375 C-9.29473489 51.74549887 -9.9375 50.80544282 -9.9375 47.27734375 C-9.2775 47.27734375 -8.6175 47.27734375 -7.9375 47.27734375 C-8.288125 46.36984375 -8.63875 45.46234375 -9 44.52734375 C-9.92265223 41.32881602 -9.9449052 40.29955934 -8.9375 37.27734375 C-9.2675 36.94734375 -9.5975 36.61734375 -9.9375 36.27734375 C-9.23982558 29.88199491 -9.23982558 29.88199491 -7.9375 27.27734375 C-8.576875 27.00921875 -9.21625 26.74109375 -9.875 26.46484375 C-11.9375 25.27734375 -11.9375 25.27734375 -12.9375 22.27734375 C-13.5975 22.27734375 -14.2575 22.27734375 -14.9375 22.27734375 C-17.95464173 17.2487742 -18.31152531 13.9812298 -17.9375 8.27734375 C-17.6075 7.28734375 -17.2775 6.29734375 -16.9375 5.27734375 C-16.2775 5.27734375 -15.6175 5.27734375 -14.9375 5.27734375 C-14.69 4.65859375 -14.4425 4.03984375 -14.1875 3.40234375 C-11.19769238 -1.68032921 -5.24538216 -1.95644294 0 0 Z " fill="#E0AA31" transform="translate(68.9375,21.72265625)"/>
<path d="M0 0 C3.04475322 1.5547676 4.49190944 2.69500952 5.7421875 5.90625 C6.69880342 9.41820982 7 12.32301788 7 16 C-0.92 16 -8.84 16 -17 16 C-15.86018237 5.74164134 -15.86018237 5.74164134 -11 1 C-7.52635643 -0.73682178 -3.79788218 -0.4533804 0 0 Z " fill="#100F0D" transform="translate(46,28)"/>
<path d="M0 0 C6.74067955 0 12.46795572 0.15715558 19 1 C18.01 1.495 18.01 1.495 17 2 C17 3.32 17 4.64 17 6 C14.69 6.33 12.38 6.66 10 7 C9.67 9.31 9.34 11.62 9 14 C11.31 14 13.62 14 16 14 C16 14.33 16 14.66 16 15 C14.35 15 12.7 15 11 15 C8.90649311 18.4019487 8.82057837 21.05272412 9 25 C7.68 25 6.36 25 5 25 C5 25.66 5 26.32 5 27 C3.35 27 1.7 27 0 27 C0 18.09 0 9.18 0 0 Z " fill="#DAD38A" transform="translate(21,45)"/>
<path d="M0 0 C2.475 1.485 2.475 1.485 5 3 C4.91621094 3.60328125 4.83242188 4.2065625 4.74609375 4.828125 C4.64425781 5.62734375 4.54242188 6.4265625 4.4375 7.25 C4.33308594 8.03890625 4.22867188 8.8278125 4.12109375 9.640625 C3.9982291 12.03450398 4.38036429 13.70505294 5 16 C5 18.33333333 5 20.66666667 5 23 C4.34 23 3.68 23 3 23 C3.495 24.98 3.495 24.98 4 27 C-8.21 27 -20.42 27 -33 27 C-33 26.67 -33 26.34 -33 26 C-26.4 26 -19.8 26 -13 26 C-13 23.69 -13 21.38 -13 19 C-11.11692557 17.11692557 -7.78608313 17.63496931 -5.2265625 17.4765625 C-2.52873451 16.89913265 -1.59043034 16.24082997 0 14 C0.3606631 11.94636394 0.3606631 11.94636394 0.1875 9.8125 C0.125625 8.554375 0.06375 7.29625 0 6 C0.66 6 1.32 6 2 6 C2 5.34 2 4.68 2 4 C1.34 3.67 0.68 3.34 0 3 C0 2.01 0 1.02 0 0 Z " fill="#90874F" transform="translate(56,46)"/>
<path d="M0 0 C0.33 0.66 0.66 1.32 1 2 C0.19175781 2.89847656 -0.61648437 3.79695313 -1.44921875 4.72265625 C-5.12541079 9.86932511 -4.779799 15.31514667 -4.8125 21.4375 C-4.83763672 22.55060547 -4.86277344 23.66371094 -4.88867188 24.81054688 C-4.94725929 27.54072045 -4.98374774 30.2693011 -5 33 C-6.32 33.66 -7.64 34.32 -9 35 C-9 35.66 -9 36.32 -9 37 C-9.99 37 -10.98 37 -12 37 C-14.35723489 34.46815512 -15 33.52809907 -15 30 C-14.34 30 -13.68 30 -13 30 C-13.350625 29.0925 -13.70125 28.185 -14.0625 27.25 C-14.98515223 24.05147227 -15.0074052 23.02221559 -14 20 C-14.33 19.67 -14.66 19.34 -15 19 C-14.4 12.4 -14.4 12.4 -12 10 C-12 17.92 -12 25.84 -12 34 C-10.68 34 -9.36 34 -8 34 C-8 26.41 -8 18.82 -8 11 C-8.66 11 -9.32 11 -10 11 C-10 9.68 -10 8.36 -10 7 C-11.32 6.67 -12.64 6.34 -14 6 C-12.80375 5.938125 -11.6075 5.87625 -10.375 5.8125 C-5.59269617 5.25087713 -3.39492769 3.31005449 0 0 Z " fill="#B58B2F" transform="translate(74,39)"/>
<path d="M0 0 C3.54538946 1.34208062 6.30905619 2.94856376 8.4375 6.1875 C9.22835168 10.14175841 9.15755013 13.98247169 9 18 C8.67 18 8.34 18 8 18 C8 15.69 8 13.38 8 11 C7.34 11 6.68 11 6 11 C6 10.34 6 9.68 6 9 C5.01 9 4.02 9 3 9 C2.34 10.32 1.68 11.64 1 13 C-5.46850394 12.38976378 -5.46850394 12.38976378 -7.875 10.625 C-9 9 -9 9 -10 6 C-10.99 5.34 -11.98 4.68 -13 4 C-8.50755528 0.49370168 -5.70706423 -0.80099147 0 0 Z " fill="#C79C46" transform="translate(67,21)"/>
<path d="M0 0 C1.94202011 0.97618418 3.83222572 1.99321758 5.69921875 3.10546875 C4.70921875 3.60046875 4.70921875 3.60046875 3.69921875 4.10546875 C3.04366756 6.6328011 3.04366756 6.6328011 2.69921875 9.10546875 C2.05984375 8.61046875 1.42046875 8.11546875 0.76171875 7.60546875 C-3.33591065 5.59846659 -6.81121876 5.3477023 -11.30078125 6.10546875 C-14.24978649 7.8292368 -14.24978649 7.8292368 -16.30078125 10.10546875 C-16.96078125 10.76546875 -17.62078125 11.42546875 -18.30078125 12.10546875 C-18.05328125 10.92984375 -18.05328125 10.92984375 -17.80078125 9.73046875 C-17.23841055 7.22338836 -17.23841055 7.22338836 -17.30078125 5.10546875 C-17.96078125 4.77546875 -18.62078125 4.44546875 -19.30078125 4.10546875 C-13.14466797 -0.13540929 -7.37786829 -2.86847511 0 0 Z " fill="#A2B0C0" transform="translate(48.30078125,22.89453125)"/>
<path d="M0 0 C0.33 0.99 0.66 1.98 1 3 C0.01 4.485 0.01 4.485 -1 6 C-1.44429438 8.04869074 -1.81294195 10.11454293 -2.125 12.1875 C-2.37636719 13.81751953 -2.37636719 13.81751953 -2.6328125 15.48046875 C-2.75398438 16.31191406 -2.87515625 17.14335938 -3 18 C-2.01 18.33 -1.02 18.66 0 19 C-3.63 19 -7.26 19 -11 19 C-11 27.91 -11 36.82 -11 46 C-10.34 46.33 -9.68 46.66 -9 47 C-10.485 47.495 -10.485 47.495 -12 48 C-12 38.1 -12 28.2 -12 18 C-10.68 18 -9.36 18 -8 18 C-8.0825 16.845 -8.165 15.69 -8.25 14.5 C-8.25 9.75385366 -6.88254208 5.79000903 -4 2 C-1.859375 0.7734375 -1.859375 0.7734375 0 0 Z " fill="#AAAA8B" transform="translate(32,26)"/>
<path d="M0 0 C4.29 0.33 8.58 0.66 13 1 C12.01 1.495 12.01 1.495 11 2 C11 3.32 11 4.64 11 6 C8.69 6.33 6.38 6.66 4 7 C3.67 7.99 3.34 8.98 3 10 C1.02 10 -0.96 10 -3 10 C-2.34 8.35 -1.68 6.7 -1 5 C-1.66 4.67 -2.32 4.34 -3 4 C-2.34 4 -1.68 4 -1 4 C-0.67 2.68 -0.34 1.36 0 0 Z " fill="#CCC785" transform="translate(27,45)"/>
<path d="M0 0 C2.97 0.33 5.94 0.66 9 1 C7.68 1.33 6.36 1.66 5 2 C5 3.32 5 4.64 5 6 C4.01 6.495 4.01 6.495 3 7 C2.67 13.6 2.34 20.2 2 27 C1.34 27 0.68 27 0 27 C0 18.09 0 9.18 0 0 Z " fill="#E2E098" transform="translate(21,45)"/>
<path d="M0 0 C1.65 0.99 3.3 1.98 5 3 C4.87431641 3.90492187 4.87431641 3.90492187 4.74609375 4.828125 C4.64425781 5.62734375 4.54242188 6.4265625 4.4375 7.25 C4.33308594 8.03890625 4.22867188 8.8278125 4.12109375 9.640625 C3.9982291 12.03450398 4.38036429 13.70505294 5 16 C5 18.33333333 5 20.66666667 5 23 C4.01 23.33 3.02 23.66 2 24 C1.34 23.34 0.68 22.68 0 22 C0 21.01 0 20.02 0 19 C-0.99 18.34 -1.98 17.68 -3 17 C-2.505 16.67 -2.01 16.34 -1.5 16 C0.88179561 12.82427253 0.19168226 9.89753934 0 6 C0.66 6 1.32 6 2 6 C2 5.34 2 4.68 2 4 C1.34 3.67 0.68 3.34 0 3 C0 2.01 0 1.02 0 0 Z " fill="#987C35" transform="translate(56,46)"/>
<path d="M0 0 C2.5625 0.1875 2.5625 0.1875 4.5625 2.1875 C3.99431818 7.75568182 3.99431818 7.75568182 2.5625 9.1875 C0.125 9.4375 0.125 9.4375 -2.4375 9.1875 C-4.4375 6.1875 -4.4375 6.1875 -4.125 3.5625 C-3.16420807 0.24340062 -3.16420807 0.24340062 0 0 Z " fill="#090A06" transform="translate(63.4375,23.8125)"/>
<path d="M0 0 C0.33 0 0.66 0 1 0 C1 7.92 1 15.84 1 24 C2.32 24.33 3.64 24.66 5 25 C4.67 25.66 4.34 26.32 4 27 C3.01 27 2.02 27 1 27 C-1.35723489 24.46815512 -2 23.52809907 -2 20 C-1.34 20 -0.68 20 0 20 C-0.350625 19.0925 -0.70125 18.185 -1.0625 17.25 C-1.98515223 14.05147227 -2.0074052 13.02221559 -1 10 C-1.33 9.67 -1.66 9.34 -2 9 C-1.30232558 2.60465116 -1.30232558 2.60465116 0 0 Z " fill="#BD9935" transform="translate(61,49)"/>
<path d="M0 0 C1.2065625 0.0309375 1.2065625 0.0309375 2.4375 0.0625 C2.4375 0.7225 2.4375 1.3825 2.4375 2.0625 C4.7475 2.0625 7.0575 2.0625 9.4375 2.0625 C9.4375 2.3925 9.4375 2.7225 9.4375 3.0625 C7.7875 3.0625 6.1375 3.0625 4.4375 3.0625 C2.67287317 6.15059695 2.4375 7.29562136 2.4375 11.0625 C0.4575 11.3925 -1.5225 11.7225 -3.5625 12.0625 C-2.9025 10.7425 -2.2425 9.4225 -1.5625 8.0625 C-2.2225 7.4025 -2.8825 6.7425 -3.5625 6.0625 C-2.5725 5.0725 -1.5825 4.0825 -0.5625 3.0625 C-1.5525 2.4025 -2.5425 1.7425 -3.5625 1.0625 C-2.5625 0.0625 -2.5625 0.0625 0 0 Z " fill="#CFC780" transform="translate(27.5625,56.9375)"/>
<path d="M0 0 C0.33 0.99 0.66 1.98 1 3 C0.07258433 4.68922141 -0.86503165 6.37442643 -1.875 8.015625 C-3.67931803 11.19824152 -4.79047895 14.552865 -6 18 C-6.33 18 -6.66 18 -7 18 C-7.56968796 5.95215453 -7.56968796 5.95215453 -4 2 C-1.8125 0.6875 -1.8125 0.6875 0 0 Z " fill="#C9D2DA" transform="translate(32,26)"/>
<path d="M0 0 C0.33 0.66 0.66 1.32 1 2 C1.66 2 2.32 2 3 2 C3 2.99 3 3.98 3 5 C-0.96 5 -4.92 5 -9 5 C-9 4.34 -9 3.68 -9 3 C-12.96 3 -16.92 3 -21 3 C-21 2.67 -21 2.34 -21 2 C-14.07 2 -7.14 2 0 2 C0 1.34 0 0.68 0 0 Z " fill="#978F60" transform="translate(53,42)"/>
<path d="M0 0 C2.30859375 1.52734375 2.30859375 1.52734375 4 3 C3.67 3.66 3.34 4.32 3 5 C2.01 4.34 1.02 3.68 0 3 C-4.56649593 2.26457182 -8.00550394 2.36521528 -11.9375 4.875 C-12.9584375 5.926875 -12.9584375 5.926875 -14 7 C-14.66 7.66 -15.32 8.32 -16 9 C-15.72960418 5.75525016 -15.1742292 4.20795098 -13.0625 1.6875 C-8.80484257 -0.65855614 -4.77145381 -0.86118922 0 0 Z " fill="#78766C" transform="translate(46,26)"/>
<path d="M0 0 C2.80281218 1.40140609 4.64713742 2.42869868 6.3125 5.125 C7.26438508 9.10561035 7.15969053 12.92789138 7 17 C6.67 17 6.34 17 6 17 C6 14.69 6 12.38 6 10 C5.34 10 4.68 10 4 10 C4 9.34 4 8.68 4 8 C3.01 8 2.02 8 1 8 C0.67 5.36 0.34 2.72 0 0 Z " fill="#BD9530" transform="translate(69,22)"/>
<path d="M0 0 C2.81627654 1.09973447 5.40481193 2.45393051 8 4 C7.01 4.495 7.01 4.495 6 5 C5.67 5.66 5.34 6.32 5 7 C5 6.01 5 5.02 5 4 C-0.28 3.34 -5.56 2.68 -11 2 C-7.27198642 -0.48534239 -4.31947817 -0.65747809 0 0 Z " fill="#75848E" transform="translate(46,22)"/>
<path d="M0 0 C0.66 0.33 1.32 0.66 2 1 C1.95875 2.155 1.9175 3.31 1.875 4.5 C1.85912567 8.94481301 2.78206895 12.73724131 4 17 C3.34 17 2.68 17 2 17 C-1.01714173 11.97143045 -1.37402531 8.70388605 -1 3 C-0.67 2.01 -0.34 1.02 0 0 Z " fill="#D2B256" transform="translate(52,27)"/>
<path d="M0 0 C-2.71182212 2.60334924 -3.89133813 2.99456691 -7.75 3.1875 C-8.8225 3.125625 -9.895 3.06375 -11 3 C-11 2.34 -11 1.68 -11 1 C-7.32589215 -0.17571451 -3.83070817 -0.07366746 0 0 Z " fill="#CCC27F" transform="translate(37,69)"/>
<path d="M0 0 C0.33 0.66 0.66 1.32 1 2 C-0.65 4.31 -2.3 6.62 -4 9 C-4.66 7.68 -5.32 6.36 -6 5 C-4.02 3.35 -2.04 1.7 0 0 Z " fill="#B18B37" transform="translate(74,39)"/>
<path d="M0 0 C0.625 1.8125 0.625 1.8125 1 4 C0.01 5.485 0.01 5.485 -1 7 C-3.625 7.1875 -3.625 7.1875 -6 7 C-6.33 6.01 -6.66 5.02 -7 4 C-4.525 4.495 -4.525 4.495 -2 5 C-2 4.34 -2 3.68 -2 3 C-1.34 3 -0.68 3 0 3 C0 2.01 0 1.02 0 0 Z " fill="#3B2204" transform="translate(67,26)"/>
<path d="M0 0 C0.99 0 1.98 0 3 0 C3 3.3 3 6.6 3 10 C2.01 10.33 1.02 10.66 0 11 C0.29296875 9.01432292 0.5859375 7.02864583 0.87890625 5.04296875 C1.13904799 2.7974658 1.13904799 2.7974658 0 0 Z " fill="#D0A243" transform="translate(66,23)"/>
<path d="M0 0 C0.66 0 1.32 0 2 0 C2 2.64 2 5.28 2 8 C1.01 8 0.02 8 -1 8 C-0.67 5.36 -0.34 2.72 0 0 Z " fill="#E0AD30" transform="translate(63,65)"/>
<path d="M0 0 C0.33 0 0.66 0 1 0 C1 2.31 1 4.62 1 7 C-1.475 6.01 -1.475 6.01 -4 5 C-2.69254251 3.31295807 -1.35827971 1.64639965 0 0 Z " fill="#897A44" transform="translate(57,59)"/>
<path d="M0 0 C1.32 0.33 2.64 0.66 4 1 C3.67 1.99 3.34 2.98 3 4 C1.02 4 -0.96 4 -3 4 C-2.67 3.34 -2.34 2.68 -2 2 C-1.34 2 -0.68 2 0 2 C0 1.34 0 0.68 0 0 Z " fill="#CDC780" transform="translate(27,51)"/>
<path d="M0 0 C0.78375 0.04125 1.5675 0.0825 2.375 0.125 C0.375 2.125 -1.625 4.125 -3.625 6.125 C-4.25 4.25 -4.25 4.25 -4.625 2.125 C-2.625 0.125 -2.625 0.125 0 0 Z " fill="#2B2008" transform="translate(63.625,23.875)"/>
</svg>
